Coordinates
version=1
nRows=13
nColumns=40
inDegrees=yes

Units are S.I. units (second, meters, Newtons, ...)
If the header above contains a line with 'inDegrees', this indicates whether rotational values are in degrees (yes) or radians (no).

endheader
time	pelvis_tilt	pelvis_list	pelvis_rotation	pelvis_tx	pelvis_ty	pelvis_tz	hip_flexion_r	hip_adduction_r	hip_rotation_r	knee_angle_r	knee_angle_r_beta	ankle_angle_r	subtalar_angle_r	mtp_angle_r	hip_flexion_l	hip_adduction_l	hip_rotation_l	knee_angle_l	knee_angle_l_beta	ankle_angle_l	subtalar_angle_l	mtp_angle_l	lumbar_extension	lumbar_bending	lumbar_rotation	arm_flex_r	arm_add_r	arm_rot_r	elbow_flex_r	pro_sup_r	wrist_flex_r	wrist_dev_r	arm_flex_l	arm_add_l	arm_rot_l	elbow_flex_l	pro_sup_l	wrist_flex_l	wrist_dev_l
      1.50000000	      2.65610088	     10.01968195	    -90.62710968	      0.03106046	      1.09980118	      0.29900337	     37.62477084	     -1.45248996	      7.38726295	      9.91628983	      0.17307191	    -21.85879554	      0.00000000	      0.00000000	     26.06640368	      3.85961036	     -0.13855401	     56.59766374	      0.98781558	     23.18599894	      0.00000000	      0.00000000	      0.62301583	     -1.08897249	     -3.56019069	     27.48026920	     19.20929023	     69.62439992	    100.16794090	     44.19910218	      0.00000000	      0.00000000	     34.51737960	     13.93731944	     68.52936215	    103.20174921	     42.17130360	      0.00000000	      0.00000000
      1.50999999	      3.09432967	      9.83913212	    -90.47946564	      0.03017646	      1.09479470	      0.30443356	     37.08327578	     -1.87349690	      7.36198967	      9.98276278	      0.17423208	    -22.12366723	      0.00000000	      0.00000000	     26.43002780	      4.23396472	     -0.24789819	     58.41449608	      1.01952529	     23.28646867	      0.00000000	      0.00000000	      0.53966471	     -1.44112792	     -3.46700291	     27.38347648	     19.11618278	     69.68017930	    100.11415103	     44.19333084	      0.00000000	      0.00000000	     34.40165454	     13.86826570	     68.56760378	    103.17617734	     42.16392625	      0.00000000	      0.00000000
      1.51999998	      3.09334236	      9.99463273	    -90.15199191	      0.02901691	      1.08895692	      0.30957647	     36.87732143	     -1.91439161	      7.08430984	     10.04250791	      0.17527483	    -22.72404398	      0.00000000	      0.00000000	     27.40053636	      4.08068569	     -0.24445467	     60.71327019	      1.05964646	     23.55442015	      0.00000000	      0.00000000	      0.83540923	     -1.31826722	     -3.67139192	     27.51359227	     19.20217101	     69.53129653	    100.12864936	     44.20843781	      0.00000000	      0.00000000	     34.57207532	     13.94488710	     68.56912522	    103.23828654	     42.16737517	      0.00000000	      0.00000000
      1.52999997	      3.42774986	      9.91187319	    -89.98804864	      0.02791330	      1.08348730	      0.31510619	     36.42225462	     -2.21119936	      7.00719683	     10.15165761	      0.17717985	    -23.09814271	      0.00000000	      0.00000000	     27.91673377	      4.32470876	     -0.32506765	     62.64453122	      1.09335333	     23.66825750	      0.00000000	      0.00000000	      0.84420339	     -1.57444763	     -3.71812859	     27.49356609	     19.27086290	     69.56347131	    100.12772192	     44.21130070	      0.00000000	      0.00000000	     34.58074212	     14.01693249	     68.58427263	    103.26481927	     42.16739986	      0.00000000	      0.00000000
      1.53999996	      3.68354825	      9.89025728	    -89.83808779	      0.02662985	      1.07780195	      0.32078101	     36.04313609	     -2.42527145	      6.80712964	     10.31130210	      0.17996617	    -23.58154737	      0.00000000	      0.00000000	     28.45797159	      4.44307831	     -0.39954308	     64.55201245	      1.12664516	     23.82919089	      0.00000000	      0.00000000	      0.97639212	     -1.73666268	     -3.76206349	     27.44869014	     19.26257234	     69.70409937	    100.16280794	     44.21405952	      0.00000000	      0.00000000	     34.56836604	     14.02192104	     68.60884076	    103.29583933	     42.16687381	      0.00000000	      0.00000000
      1.54999995	      3.94425487	      9.93505623	    -89.69325545	      0.02533396	      1.07201835	      0.32665123	     35.73662148	     -2.63783379	      6.55174995	     10.50049972	      0.18326829	    -24.04219290	      0.00000000	      0.00000000	     28.99210201	      4.57483677	     -0.50015342	     66.36858391	      1.15835031	     24.03491064	      0.00000000	      0.00000000	      1.18053340	     -1.85126584	     -3.74868438	     27.42408677	     19.24185536	     69.69510740	    100.13949666	     44.22092610	      0.00000000	      0.00000000	     34.45959753	     13.97512715	     68.62429078	    103.31506877	     42.16275933	      0.00000000	      0.00000000
      1.56000006	      4.39517100	      9.80855189	    -89.68872669	      0.02386022	      1.06650830	      0.33284190	     35.20470835	     -2.96524845	      6.48093714	     10.63894851	      0.18568468	    -24.27145106	      0.00000000	      0.00000000	     29.16486128	      4.89252308	     -0.67826335	     67.89929964	      1.18506634	     24.15137262	      0.00000000	      0.00000000	      1.21702485	     -2.19659295	     -3.62459339	     27.30417126	     19.20521171	     69.74745732	    100.08641023	     44.21514727	      0.00000000	      0.00000000	     34.29082244	     13.89874266	     68.66722101	    103.29402148	     42.15611181	      0.00000000	      0.00000000
      1.57000005	      4.77367427	      9.74916985	    -89.68289745	      0.02223023	      1.06078157	      0.33910874	     34.75714210	     -3.20857917	      6.34338985	     10.83495005	      0.18910555	    -24.55419390	      0.00000000	      0.00000000	     29.40423516	      5.11912276	     -0.85956770	     69.47037588	      1.21248679	     24.34317360	      0.00000000	      0.00000000	      1.33332948	     -2.46559335	     -3.57115179	     27.18482065	     19.20590058	     69.83115990	    100.06666288	     44.21139247	      0.00000000	      0.00000000	     34.18469642	     13.88244099	     68.68165912	    103.29928712	     42.15513476	      0.00000000	      0.00000000
      1.58000004	      4.85248934	     10.03159367	    -89.61107665	      0.02040507	      1.05432380	      0.34521603	     34.81180585	     -3.16824463	      5.72556989	     11.29786116	      0.19718488	    -25.06165506	      0.00000000	      0.00000000	     30.11670030	      5.01049660	     -0.89808657	     71.26176622	      1.24375245	     24.77659127	      0.00000000	      0.00000000	      1.85941663	     -2.38662870	     -3.63028927	     27.18709418	     19.30117174	     69.72792066	    100.07991120	     44.22359583	      0.00000000	      0.00000000	     34.12343643	     13.94131338	     68.59574470	    103.39623689	     42.17078192	      0.00000000	      0.00000000
      1.59000003	      5.15259490	     10.13304724	    -89.63630794	      0.01853856	      1.04820766	      0.35173179	     34.59748325	     -3.31445268	      5.23891360	     11.66548863	      0.20360119	    -25.27551517	      0.00000000	      0.00000000	     30.47182750	      5.15443241	     -1.01720972	     72.79050425	      1.27043396	     25.03350411	      0.00000000	      0.00000000	      2.21589964	     -2.53870384	     -3.61012243	     27.01490489	     19.28081531	     69.86162293	    100.07651304	     44.22482658	      0.00000000	      0.00000000	     33.90439861	     13.89919463	     68.54600208	    103.46148396	     42.17926423	      0.00000000	      0.00000000
      1.60000002	      5.45901179	     10.20478427	    -89.69527143	      0.01660905	      1.04210983	      0.35833070	     34.36627892	     -3.45689525	      4.62738637	     12.07445036	      0.21073891	    -25.54396935	      0.00000000	      0.00000000	     30.76966085	      5.29325024	     -1.16877806	     74.28220112	      1.29646899	     25.29551175	      0.00000000	      0.00000000	      2.52240192	     -2.68821588	     -3.59653386	     26.95683020	     19.31878848	     69.79609971	    100.00993115	     44.22713745	      0.00000000	      0.00000000	     33.70556101	     13.85841714	     68.49806352	    103.52943655	     42.18859662	      0.00000000	      0.00000000
      1.61000001	      5.89441559	     10.14490503	    -89.84787635	      0.01451468	      1.03626461	      0.36524268	     33.85050735	     -3.66807582	      4.26933268	     12.27377239	      0.21421774	    -25.65089045	      0.00000000	      0.00000000	     30.81580605	      5.53283943	     -1.42943312	     75.60003220	      1.31946948	     25.42087258	      0.00000000	      0.00000000	      2.71350098	     -2.97622118	     -3.47198617	     26.83074951	     19.26008758	     69.85463712	     99.95383593	     44.22055440	      0.00000000	      0.00000000	     33.52465419	     13.73735374	     68.52176009	    103.51318649	     42.18401194	      0.00000000	      0.00000000
      1.62000000	      6.10205286	     10.26438062	    -89.88967948	      0.01239868	      1.02982905	      0.37192598	     33.84607014	     -3.75226705	      3.02936147	     13.11651723	      0.22892641	    -25.97942352	      0.00000000	      0.00000000	     31.18947298	      5.51456957	     -1.59201751	     77.19003409	      1.34722024	     25.73910654	      0.00000000	      0.00000000	      3.06480307	     -2.98880383	     -3.55349283	     26.76483402	     19.30669458	     69.94252174	     99.96096324	     44.22390318	      0.00000000	      0.00000000	     33.40503622	     13.74824945	     68.40958820	    103.65366010	     42.20813260	      0.00000000	      0.00000000
